<mxfile host="app.diagrams.net" modified="2024-03-04T03:32:31.260Z" agent="Mozilla/5.0 (Windows NT 10.0; Win64; x64) AppleWebKit/537.36 (KHTML, like Gecko) Chrome/121.0.0.0 Safari/537.36" etag="wMaZEg8y5yMKfy-Se1D9" version="23.1.8" type="github">
  <diagram name="第 1 页" id="B640qeo-n573kTRp1eWe">
    <mxGraphModel dx="600" dy="328" grid="1" gridSize="10" guides="1" tooltips="1" connect="1" arrows="1" fold="1" page="1" pageScale="1" pageWidth="827" pageHeight="1169" math="0" shadow="0">
      <root>
        <mxCell id="0" />
        <mxCell id="1" parent="0" />
        <mxCell id="t6vxeUEf35W2q5bZ3Fgx-1" value="模型重训练界面" style="shape=umlLifeline;perimeter=lifelinePerimeter;whiteSpace=wrap;html=1;container=1;dropTarget=0;collapsible=0;recursiveResize=0;outlineConnect=0;portConstraint=eastwest;newEdgeStyle={&quot;curved&quot;:0,&quot;rounded&quot;:0};" vertex="1" parent="1">
          <mxGeometry x="180" y="190" width="100" height="270" as="geometry" />
        </mxCell>
        <mxCell id="t6vxeUEf35W2q5bZ3Fgx-2" value="" style="html=1;points=[[0,0,0,0,5],[0,1,0,0,-5],[1,0,0,0,5],[1,1,0,0,-5]];perimeter=orthogonalPerimeter;outlineConnect=0;targetShapes=umlLifeline;portConstraint=eastwest;newEdgeStyle={&quot;curved&quot;:0,&quot;rounded&quot;:0};" vertex="1" parent="t6vxeUEf35W2q5bZ3Fgx-1">
          <mxGeometry x="45" y="67" width="10" height="30" as="geometry" />
        </mxCell>
        <mxCell id="t6vxeUEf35W2q5bZ3Fgx-3" value="" style="html=1;points=[[0,0,0,0,5],[0,1,0,0,-5],[1,0,0,0,5],[1,1,0,0,-5]];perimeter=orthogonalPerimeter;outlineConnect=0;targetShapes=umlLifeline;portConstraint=eastwest;newEdgeStyle={&quot;curved&quot;:0,&quot;rounded&quot;:0};" vertex="1" parent="t6vxeUEf35W2q5bZ3Fgx-1">
          <mxGeometry x="45" y="210" width="10" height="40" as="geometry" />
        </mxCell>
        <mxCell id="t6vxeUEf35W2q5bZ3Fgx-4" value="" style="shape=umlLifeline;perimeter=lifelinePerimeter;whiteSpace=wrap;html=1;container=1;dropTarget=0;collapsible=0;recursiveResize=0;outlineConnect=0;portConstraint=eastwest;newEdgeStyle={&quot;curved&quot;:0,&quot;rounded&quot;:0};participant=umlActor;" vertex="1" parent="1">
          <mxGeometry x="80" y="190" width="20" height="270" as="geometry" />
        </mxCell>
        <mxCell id="t6vxeUEf35W2q5bZ3Fgx-5" value="" style="html=1;points=[[0,0,0,0,5],[0,1,0,0,-5],[1,0,0,0,5],[1,1,0,0,-5]];perimeter=orthogonalPerimeter;outlineConnect=0;targetShapes=umlLifeline;portConstraint=eastwest;newEdgeStyle={&quot;curved&quot;:0,&quot;rounded&quot;:0};" vertex="1" parent="t6vxeUEf35W2q5bZ3Fgx-4">
          <mxGeometry x="5" y="67" width="10" height="183" as="geometry" />
        </mxCell>
        <mxCell id="t6vxeUEf35W2q5bZ3Fgx-6" value="检测模型管理模块" style="shape=umlLifeline;perimeter=lifelinePerimeter;whiteSpace=wrap;html=1;container=1;dropTarget=0;collapsible=0;recursiveResize=0;outlineConnect=0;portConstraint=eastwest;newEdgeStyle={&quot;curved&quot;:0,&quot;rounded&quot;:0};" vertex="1" parent="1">
          <mxGeometry x="314" y="190" width="100" height="270" as="geometry" />
        </mxCell>
        <mxCell id="t6vxeUEf35W2q5bZ3Fgx-7" value="" style="html=1;points=[[0,0,0,0,5],[0,1,0,0,-5],[1,0,0,0,5],[1,1,0,0,-5]];perimeter=orthogonalPerimeter;outlineConnect=0;targetShapes=umlLifeline;portConstraint=eastwest;newEdgeStyle={&quot;curved&quot;:0,&quot;rounded&quot;:0};" vertex="1" parent="t6vxeUEf35W2q5bZ3Fgx-6">
          <mxGeometry x="45" y="87" width="10" height="133" as="geometry" />
        </mxCell>
        <mxCell id="t6vxeUEf35W2q5bZ3Fgx-8" value="数据库" style="shape=umlLifeline;perimeter=lifelinePerimeter;whiteSpace=wrap;html=1;container=1;dropTarget=0;collapsible=0;recursiveResize=0;outlineConnect=0;portConstraint=eastwest;newEdgeStyle={&quot;curved&quot;:0,&quot;rounded&quot;:0};" vertex="1" parent="1">
          <mxGeometry x="444" y="190" width="100" height="270" as="geometry" />
        </mxCell>
        <mxCell id="t6vxeUEf35W2q5bZ3Fgx-9" value="" style="html=1;points=[[0,0,0,0,5],[0,1,0,0,-5],[1,0,0,0,5],[1,1,0,0,-5]];perimeter=orthogonalPerimeter;outlineConnect=0;targetShapes=umlLifeline;portConstraint=eastwest;newEdgeStyle={&quot;curved&quot;:0,&quot;rounded&quot;:0};" vertex="1" parent="t6vxeUEf35W2q5bZ3Fgx-8">
          <mxGeometry x="45" y="99" width="10" height="45" as="geometry" />
        </mxCell>
        <mxCell id="t6vxeUEf35W2q5bZ3Fgx-10" value="运维人员" style="text;html=1;align=center;verticalAlign=middle;whiteSpace=wrap;rounded=0;" vertex="1" parent="1">
          <mxGeometry x="90" y="200" width="60" height="30" as="geometry" />
        </mxCell>
        <mxCell id="t6vxeUEf35W2q5bZ3Fgx-11" style="edgeStyle=orthogonalEdgeStyle;rounded=0;orthogonalLoop=1;jettySize=auto;html=1;curved=0;exitX=1;exitY=0;exitDx=0;exitDy=5;exitPerimeter=0;entryX=0;entryY=0;entryDx=0;entryDy=5;entryPerimeter=0;" edge="1" parent="1" source="t6vxeUEf35W2q5bZ3Fgx-5" target="t6vxeUEf35W2q5bZ3Fgx-2">
          <mxGeometry relative="1" as="geometry" />
        </mxCell>
        <mxCell id="t6vxeUEf35W2q5bZ3Fgx-12" value="1. 设置训练数据范围，训练迭代周期" style="text;html=1;align=center;verticalAlign=middle;whiteSpace=wrap;rounded=0;" vertex="1" parent="1">
          <mxGeometry x="102.5" y="232" width="115" height="30" as="geometry" />
        </mxCell>
        <mxCell id="t6vxeUEf35W2q5bZ3Fgx-13" style="edgeStyle=orthogonalEdgeStyle;rounded=0;orthogonalLoop=1;jettySize=auto;html=1;curved=0;exitX=1;exitY=1;exitDx=0;exitDy=-5;exitPerimeter=0;entryX=0;entryY=0;entryDx=0;entryDy=5;entryPerimeter=0;" edge="1" parent="1" source="t6vxeUEf35W2q5bZ3Fgx-2" target="t6vxeUEf35W2q5bZ3Fgx-7">
          <mxGeometry relative="1" as="geometry" />
        </mxCell>
        <mxCell id="t6vxeUEf35W2q5bZ3Fgx-14" value="2. 提交信息" style="text;html=1;align=center;verticalAlign=middle;whiteSpace=wrap;rounded=0;" vertex="1" parent="1">
          <mxGeometry x="242" y="257" width="100" height="30" as="geometry" />
        </mxCell>
        <mxCell id="t6vxeUEf35W2q5bZ3Fgx-15" value="" style="endArrow=classic;html=1;rounded=0;" edge="1" parent="1">
          <mxGeometry width="50" height="50" relative="1" as="geometry">
            <mxPoint x="368.7500000000001" y="296" as="sourcePoint" />
            <mxPoint x="489.25" y="296" as="targetPoint" />
          </mxGeometry>
        </mxCell>
        <mxCell id="t6vxeUEf35W2q5bZ3Fgx-16" value="3. 查询相关数据" style="text;html=1;align=center;verticalAlign=middle;whiteSpace=wrap;rounded=0;" vertex="1" parent="1">
          <mxGeometry x="383.75" y="271" width="96.25" height="30" as="geometry" />
        </mxCell>
        <mxCell id="t6vxeUEf35W2q5bZ3Fgx-17" value="" style="endArrow=classic;html=1;rounded=0;edgeStyle=orthogonalEdgeStyle;" edge="1" parent="1">
          <mxGeometry width="50" height="50" relative="1" as="geometry">
            <mxPoint x="368.5" y="354" as="sourcePoint" />
            <mxPoint x="368.5" y="383" as="targetPoint" />
            <Array as="points">
              <mxPoint x="388.5" y="354" />
              <mxPoint x="388.5" y="383" />
            </Array>
          </mxGeometry>
        </mxCell>
        <mxCell id="t6vxeUEf35W2q5bZ3Fgx-18" value="4. 模型训练" style="text;html=1;align=center;verticalAlign=middle;whiteSpace=wrap;rounded=0;" vertex="1" parent="1">
          <mxGeometry x="372.5" y="352.99" width="100" height="30" as="geometry" />
        </mxCell>
        <mxCell id="t6vxeUEf35W2q5bZ3Fgx-19" value="" style="endArrow=classic;html=1;rounded=0;dashed=1;" edge="1" parent="1">
          <mxGeometry width="50" height="50" relative="1" as="geometry">
            <mxPoint x="488.75" y="329" as="sourcePoint" />
            <mxPoint x="369" y="329" as="targetPoint" />
          </mxGeometry>
        </mxCell>
        <mxCell id="t6vxeUEf35W2q5bZ3Fgx-20" value="return" style="text;html=1;align=center;verticalAlign=middle;whiteSpace=wrap;rounded=0;" vertex="1" parent="1">
          <mxGeometry x="390" y="306" width="80" height="30" as="geometry" />
        </mxCell>
        <mxCell id="t6vxeUEf35W2q5bZ3Fgx-21" value="" style="endArrow=classic;html=1;rounded=0;dashed=1;exitX=0;exitY=1;exitDx=0;exitDy=-5;exitPerimeter=0;" edge="1" parent="1" source="t6vxeUEf35W2q5bZ3Fgx-7">
          <mxGeometry width="50" height="50" relative="1" as="geometry">
            <mxPoint x="354.88" y="405" as="sourcePoint" />
            <mxPoint x="235.13" y="405" as="targetPoint" />
          </mxGeometry>
        </mxCell>
        <mxCell id="t6vxeUEf35W2q5bZ3Fgx-22" value="5. 返回训练结果" style="text;html=1;align=center;verticalAlign=middle;whiteSpace=wrap;rounded=0;" vertex="1" parent="1">
          <mxGeometry x="256.13" y="378" width="93.87" height="30" as="geometry" />
        </mxCell>
        <mxCell id="t6vxeUEf35W2q5bZ3Fgx-23" style="edgeStyle=orthogonalEdgeStyle;rounded=0;orthogonalLoop=1;jettySize=auto;html=1;curved=0;exitX=0;exitY=1;exitDx=0;exitDy=-5;exitPerimeter=0;entryX=1;entryY=1;entryDx=0;entryDy=-5;entryPerimeter=0;dashed=1;" edge="1" parent="1" source="t6vxeUEf35W2q5bZ3Fgx-3" target="t6vxeUEf35W2q5bZ3Fgx-5">
          <mxGeometry relative="1" as="geometry" />
        </mxCell>
        <mxCell id="t6vxeUEf35W2q5bZ3Fgx-24" value="6. 训练结果展示" style="text;html=1;align=center;verticalAlign=middle;whiteSpace=wrap;rounded=0;" vertex="1" parent="1">
          <mxGeometry x="110" y="410" width="100" height="30" as="geometry" />
        </mxCell>
      </root>
    </mxGraphModel>
  </diagram>
</mxfile>
